<svg width="1200" height="675" viewBox="0 0 1200 675" fill="none" xmlns="http://www.w3.org/2000/svg">
  <defs>
    <linearGradient id="bg" x1="90" y1="40" x2="1110" y2="635" gradientUnits="userSpaceOnUse">
      <stop stop-color="#EAF4D7"/>
      <stop offset="1" stop-color="#BFD4A8"/>
    </linearGradient>
    <linearGradient id="card" x1="220" y1="140" x2="980" y2="540" gradientUnits="userSpaceOnUse">
      <stop stop-color="#35516A" stop-opacity="0.94"/>
      <stop offset="1" stop-color="#233649" stop-opacity="0.96"/>
    </linearGradient>
  </defs>

  <rect width="1200" height="675" fill="url(#bg)"/>
  <circle cx="116" cy="104" r="184" fill="#0F766E" fill-opacity="0.12"/>
  <circle cx="1088" cy="568" r="232" fill="#0F766E" fill-opacity="0.1"/>

  <rect x="186" y="112" width="828" height="451" rx="24" fill="url(#card)"/>
  <rect x="186.5" y="112.5" width="827" height="450" rx="23.5" stroke="#9FC0C3" stroke-opacity="0.18"/>

  <rect x="244" y="166" width="240" height="14" rx="7" fill="#7AD3CF" fill-opacity="0.5"/>
  <rect x="244" y="196" width="182" height="10" rx="5" fill="#BFD5DE" fill-opacity="0.45"/>

  <rect x="244" y="258" width="710" height="2" rx="1" fill="#8AA9B8" fill-opacity="0.35"/>
  <rect x="244" y="306" width="642" height="2" rx="1" fill="#8AA9B8" fill-opacity="0.25"/>
  <rect x="244" y="354" width="684" height="2" rx="1" fill="#8AA9B8" fill-opacity="0.25"/>
  <rect x="244" y="402" width="590" height="2" rx="1" fill="#8AA9B8" fill-opacity="0.25"/>

  <path d="M760 217L792 239L760 261" stroke="#7AD3CF" stroke-width="8" stroke-linecap="round" stroke-linejoin="round"/>
  <path d="M846 217L814 239L846 261" stroke="#7AD3CF" stroke-width="8" stroke-linecap="round" stroke-linejoin="round"/>
  <rect x="802" y="214" width="4" height="50" rx="2" fill="#BDEDE8" fill-opacity="0.8"/>

  <rect x="244" y="470" width="118" height="32" rx="16" fill="#0F766E" fill-opacity="0.34"/>
  <rect x="378" y="470" width="118" height="32" rx="16" fill="#0F766E" fill-opacity="0.28"/>
  <rect x="512" y="470" width="118" height="32" rx="16" fill="#0F766E" fill-opacity="0.22"/>
</svg>
